<?xml version="1.0" encoding="UTF-8"?>
<svg id="Layer_5_copy" data-name="Layer 5 copy" xmlns="http://www.w3.org/2000/svg" xmlns:xlink="http://www.w3.org/1999/xlink" viewBox="0 0 612.57 491.1">
  <defs>
    <style>
      .cls-1 {
        fill: url(#linear-gradient);
      }
    </style>
    <linearGradient id="linear-gradient" x1="77.93" y1="19.72" x2="534.62" y2="476.41" gradientUnits="userSpaceOnUse">
      <stop offset="0" stop-color="#10b981"/>
      <stop offset="1" stop-color="#0d9488"/>
    </linearGradient>
  </defs>
  <path class="cls-1" d="M502.71,44.5c-3.64,0-6.83-2.65-7.4-6.36l-4.25-27.65c-.63-4.09,2.18-7.92,6.27-8.55,4.09-.62,7.92,2.18,8.55,6.27l4.25,27.65c.63,4.09-2.18,7.92-6.27,8.55-.39.06-.77.09-1.15.09ZM483.04,58.92c2.18-3.52,1.09-8.14-2.43-10.32l-25.45-15.76c-3.52-2.18-8.14-1.09-10.32,2.43-2.18,3.52-1.09,8.14,2.43,10.32l25.45,15.76c1.23.76,2.59,1.12,3.94,1.12,2.51,0,4.96-1.26,6.38-3.55ZM542.05,39.87l11.76-24.12c1.81-3.72.27-8.21-3.46-10.03-3.72-1.81-8.21-.27-10.03,3.46l-11.76,24.12c-1.81,3.72-.27,8.21,3.46,10.03,1.06.52,2.18.76,3.28.76,2.78,0,5.45-1.55,6.75-4.22ZM610.06,32.94c-2.79,59.76-5.58,119.56-8.37,179.32l.13.02-9.49,203c-.12,2.7-1.4,5.19-3.53,6.84-7.26,5.75-26.87,18.86-62.91,27.61-47.33,11.46-122.98,15.44-236.36-14.57-113.39-30.04-185.49-15.9-229.22,5.7-18.99,9.38-32.67,20.19-42.03,29.43-6.01,5.92-16.16,1.33-15.77-7.11,2.99-64.26,6-128.55,9.02-192.81,2.96-63.67,5.95-127.35,8.91-191.02t.02-.07c.42-2.09,1.59-3.98,3.3-5.33,7.3-5.72,26.87-18.83,62.91-27.58,47.33-11.46,122.98-15.44,236.36,14.57,113.39,30.04,185.49,15.9,229.22-5.7,19.03-9.39,32.67-20.19,42.03-29.43,6.01-5.92,16.16-1.33,15.77,7.11ZM446.73,248.44c0-77.54-62.86-140.4-140.39-140.4s-140.4,62.86-140.4,140.4,62.86,140.4,140.4,140.4,140.39-62.86,140.39-140.4ZM547.03,119.11c0-15.3-12.41-27.71-27.71-27.71s-27.72,12.41-27.72,27.71,12.41,27.72,27.72,27.72,27.71-12.41,27.71-27.72ZM204.64,218.85c-2.6,9.17-3.99,18.85-3.99,28.85,0,30.54,12.97,58.05,33.7,77.33-9.1-35.57-19.01-70.97-29.71-106.18ZM379.14,324.08c20.14-19.23,32.69-46.34,32.69-76.38,0-9.75-1.33-19.2-3.8-28.16-10.37,34.68-20,69.53-28.88,104.54ZM374.06,328.47c-2.52-.38-5.03-.74-7.55-1.08-2.07-.28-3.65-2.01-3.7-4.1-.46-20.24-1.3-40.51-2.53-60.78-.64-9.77-1.1-19.03-1.21-28.73-.17-.02-.35-.03-.52-.05-2.14,9.49-4.01,18.52-6.52,27.98-5.1,19.66-9.81,39.38-14.13,59.16-.45,2.03-2.32,3.44-4.41,3.31-2.44-.15-4.88-.27-7.33-.38-2.17-.1-3.93-1.81-4.06-3.97-2.9-50.16-7.32-100.31-13.26-150.37-.3-2.46,2.33-4.57,5.68-4.52,2.3.03,4.61.07,6.91.13,2.99.07,5.41,1.86,5.53,4.06,1.91,31.91,3.36,63.83,4.33,95.74.33,13.3.56,21.04.2,36.72.15,0,.3.02.46.02,2.69-15.56,4.26-23.2,7.21-36.06,4.47-18.19,9.29-36.33,14.46-54.4.57-2,2.91-3.31,5.52-3.07,1.84.17,3.69.35,5.53.54,2.61.27,4.66,2.02,4.82,4.1,1.46,18.71,2.58,37.42,3.36,56.11.57,13.21.47,20.99.12,36.78.2.03.4.06.61.09,2.83-15.43,4.24-23.03,7.1-35.78,5.57-24.75,11.44-49.45,17.57-74.1-18.12-32.08-52.52-53.73-91.99-53.73s-72.96,21.09-91.26,52.46c6.28,24.94,12.28,49.93,17.97,74.99,2.87,12.99,4.58,20.55,7.22,36.01.15-.02.3-.04.45-.06-.33-15.78-.25-23.59.19-36.78.91-18.71,2.18-37.43,3.8-56.16.18-2.07,2.23-3.81,4.83-4.07,1.84-.18,3.69-.36,5.53-.53,2.62-.24,4.96,1.09,5.52,3.1,5.01,18.09,9.68,36.24,14.01,54.44,3.08,12.86,4.47,20.52,7.14,36.08.2-.01.41-.02.61-.03-.18-15.69-.24-23.42.12-36.47.92-31.98,2.3-63.97,4.13-95.95.12-2.21,2.55-4,5.54-4.07,2.04-.05,4.09-.09,6.13-.11,3.34-.04,5.96,2.06,5.68,4.51-5.69,50.06-9.93,100.2-12.7,150.35-.12,2.17-1.89,3.89-4.06,3.98-2.54.11-5.07.24-7.6.39-2.09.12-3.96-1.28-4.41-3.31-4.31-19.78-9.01-39.51-14.1-59.17-2.5-9.47-4.71-18.47-6.68-27.97-.17.02-.35.03-.52.05-.29,9.72-.4,18.94-1.05,28.71-1.24,20.27-2.1,40.53-2.57,60.78-.05,2.08-1.62,3.82-3.7,4.09-2.43.32-4.86.67-7.28,1.03-.34.05-.68.05-1.01.02,18.38,15.52,42.14,24.89,68.08,24.89s49.62-9.33,67.99-24.81c-.06,0-.12,0-.17,0Z"/>
</svg>