<?xml version="1.0" encoding="UTF-8"?>
<svg xmlns="http://www.w3.org/2000/svg" viewBox="0 0 609.48 489.26">
  <defs>
    <style>
      .cls-1 {
        stroke: #719e45;
        stroke-linecap: round;
        stroke-miterlimit: 10;
        stroke-width: 15px;
      }

      .cls-1, .cls-2 {
        fill: #719e45;
      }

      .cls-3 {
        fill: #fff;
      }
    </style>
  </defs>
  <g id="Layer_2" data-name="Layer 2">
    <path class="cls-2" d="M59.46,439.03c-18.99,9.38-32.67,20.19-42.03,29.43-6.01,5.92-16.16,1.33-15.77-7.11,2.99-64.26,6-128.55,9.02-192.81,2.96-63.67,5.95-127.35,8.91-191.02t.02-.07c.42-2.09,1.59-3.98,3.3-5.33,7.3-5.72,26.87-18.83,62.91-27.58,47.33-11.46,122.98-15.44,236.36,14.57,113.39,30.04,185.49,15.9,229.22-5.7,19.03-9.39,32.67-20.19,42.03-29.43,6.01-5.92,16.16-1.33,15.77,7.11-2.79,59.76-5.58,119.56-8.37,179.32l.13.02-9.49,203c-.12,2.7-1.4,5.19-3.53,6.84-7.26,5.75-26.87,18.86-62.91,27.61-47.33,11.46-122.98,15.44-236.36-14.57-113.39-30.04-185.49-15.9-229.22,5.7Z"/>
  </g>
  <g id="Layer_3" data-name="Layer 3">
    <circle class="cls-3" cx="518.48" cy="117.27" r="27.71"/>
    <circle class="cls-3" cx="305.49" cy="246.6" r="140.4"/>
    <circle class="cls-2" cx="305.4" cy="245.86" r="105.59"/>
  </g>
  <g id="Layer_4" data-name="Layer 4">
    <path class="cls-1" d="M501.88,35.15l-4.25-27.65"/>
    <path class="cls-1" d="M475.82,53.13l-25.45-15.76"/>
    <path class="cls-1" d="M534.47,34.74l11.76-24.12"/>
  </g>
  <g id="Layer_5" data-name="Layer 5">
    <g>
      <path class="cls-3" d="M196.46,172.84c2.28-.41,4.55-.81,6.83-1.2,2.96-.5,5.68.79,6.23,2.93,7.99,30.96,15.52,62.01,22.58,93.15,2.87,12.99,4.58,20.55,7.22,36.01.15-.02.3-.04.45-.06-.33-15.78-.25-23.59.19-36.78.91-18.71,2.18-37.43,3.8-56.16.18-2.07,2.23-3.81,4.83-4.07,1.84-.18,3.69-.36,5.53-.53,2.62-.24,4.96,1.09,5.52,3.1,5.01,18.09,9.68,36.24,14.01,54.44,3.08,12.86,4.47,20.52,7.14,36.08.2-.01.41-.02.61-.03-.18-15.69-.24-23.42.12-36.47.92-31.98,2.3-63.97,4.13-95.95.12-2.21,2.55-4,5.54-4.07,2.04-.05,4.09-.09,6.13-.11,3.34-.04,5.96,2.06,5.68,4.51-5.69,50.06-9.93,100.2-12.7,150.35-.12,2.17-1.89,3.89-4.06,3.98-2.54.11-5.07.24-7.6.39-2.09.12-3.96-1.28-4.41-3.31-4.31-19.78-9.01-39.51-14.1-59.17-2.5-9.47-4.71-18.47-6.68-27.97-.17.02-.35.03-.52.05-.29,9.72-.4,18.94-1.05,28.71-1.24,20.27-2.1,40.53-2.57,60.78-.05,2.08-1.62,3.82-3.7,4.09-2.43.32-4.86.67-7.28,1.03-2.16.32-4.21-1.02-4.75-3.12-12.45-48.68-26.4-97.05-41.84-145.05-.76-2.35,1.42-4.93,4.73-5.53Z"/>
      <path class="cls-3" d="M313.67,163.11c2.3.03,4.61.07,6.91.13,2.99.07,5.41,1.86,5.53,4.06,1.91,31.91,3.36,63.83,4.33,95.74.33,13.3.56,21.04.2,36.72.15,0,.3.02.46.02,2.69-15.56,4.26-23.2,7.21-36.06,4.47-18.19,9.29-36.33,14.46-54.4.57-2,2.91-3.31,5.52-3.07,1.84.17,3.69.35,5.53.54,2.61.27,4.66,2.02,4.82,4.1,1.46,18.71,2.58,37.42,3.36,56.11.57,13.21.47,20.99.12,36.78.2.03.4.06.61.09,2.83-15.43,4.24-23.03,7.1-35.78,7.03-31.22,14.5-62.35,22.42-93.39.54-2.14,3.27-3.44,6.23-2.93,2.02.35,4.04.7,6.06,1.07,3.3.6,5.48,3.16,4.73,5.51-15.19,48.04-28.96,96.44-41.29,145.13-.54,2.11-2.6,3.46-4.76,3.13-2.52-.38-5.03-.74-7.55-1.08-2.07-.28-3.65-2.01-3.7-4.1-.46-20.24-1.3-40.51-2.53-60.78-.64-9.77-1.1-19.03-1.21-28.73-.17-.02-.35-.03-.52-.05-2.14,9.49-4.01,18.52-6.52,27.98-5.1,19.66-9.81,39.38-14.13,59.16-.45,2.03-2.32,3.44-4.41,3.31-2.44-.15-4.88-.27-7.33-.38-2.17-.1-3.93-1.81-4.06-3.97-2.9-50.16-7.32-100.31-13.26-150.37-.3-2.46,2.33-4.57,5.68-4.52Z"/>
    </g>
  </g>
</svg>